<?xml version="1.0" encoding="UTF-8"?>
<svg width="1920" height="1080" version="1.1" viewBox="0 0 508 285.75" xmlns="http://www.w3.org/2000/svg">
 <rect width="508" height="285.75" fill="#f0f0f0"/>
 <g transform="matrix(1.0583 0 0 1.0583 -.0000026613 0)" fill="#999">
  <path d="m240 135c-19.33 0-35-15.67-35-35s15.67-35 35-35 35 15.67 35 35-15.67 35-35 35zm0-60c-13.785 0-25 11.215-25 25s11.215 25 25 25 25-11.215 25-25-11.215-25-25-25z"/>
  <path d="m265 155.425-10-17.325-5.175 5.175-14.825-14.825-35 35v6.55h75v-14.575z"/>
 </g>
</svg>
